<svg width="95" height="81" viewBox="0 0 95 81" fill="none" xmlns="http://www.w3.org/2000/svg">
<path d="M45 69C61.5685 69 75 55.5685 75 39C75 22.4315 61.5685 9 45 9C28.4315 9 15 22.4315 15 39C15 55.5685 28.4315 69 45 69Z" stroke="#DDB892" stroke-width="4"/>
<path d="M45 59C56.0457 59 65 50.0457 65 39C65 27.9543 56.0457 19 45 19C33.9543 19 25 27.9543 25 39C25 50.0457 33.9543 59 45 59Z" stroke="#DDB892" stroke-width="4"/>
<path d="M45 50C50.5228 50 55 45.5228 55 40C55 34.4772 50.5228 30 45 30C39.4772 30 35 34.4772 35 40C35 45.5228 39.4772 50 45 50Z" stroke="#DDB892" stroke-width="4"/>
</svg>
